<?xml version="1.0" encoding="UTF-8" standalone="no"?>
<!-- Created with Inkscape (http://www.inkscape.org/) -->

<svg
   xmlns:dc="http://purl.org/dc/elements/1.1/"
   xmlns:cc="http://creativecommons.org/ns#"
   xmlns:rdf="http://www.w3.org/1999/02/22-rdf-syntax-ns#"
   xmlns:svg="http://www.w3.org/2000/svg"
   xmlns="http://www.w3.org/2000/svg"
   xmlns:sodipodi="http://sodipodi.sourceforge.net/DTD/sodipodi-0.dtd"
   xmlns:inkscape="http://www.inkscape.org/namespaces/inkscape"
   id="svg3004"
   version="1.1"
   inkscape:version="0.48.5 r10040"
   width="272.5"
   height="251.25"
   xml:space="preserve"
   sodipodi:docname="AT_White Logo on Red2.svg"><metadata
     id="metadata3010"><rdf:RDF><cc:Work
         rdf:about=""><dc:format>image/svg+xml</dc:format><dc:type
           rdf:resource="http://purl.org/dc/dcmitype/StillImage" /><dc:title></dc:title></cc:Work></rdf:RDF></metadata><defs
     id="defs3008"><clipPath
       clipPathUnits="userSpaceOnUse"
       id="clipPath3018"><path
         d="M 0,201 L 218,201 L 218,0 L 0,0 L 0,201 z"
         id="path3020" /></clipPath></defs><sodipodi:namedview
     pagecolor="#ffffff"
     bordercolor="#666666"
     borderopacity="1"
     objecttolerance="10"
     gridtolerance="10"
     guidetolerance="10"
     inkscape:pageopacity="0"
     inkscape:pageshadow="2"
     inkscape:window-width="1709"
     inkscape:window-height="1303"
     id="namedview3006"
     showgrid="false"
     inkscape:zoom="1"
     inkscape:cx="33.5"
     inkscape:cy="85.625"
     inkscape:window-x="2674"
     inkscape:window-y="93"
     inkscape:window-maximized="0"
     inkscape:current-layer="g3012" /><g
     id="g3012"
     inkscape:groupmode="layer"
     inkscape:label="AT_White Logo on Red2"
     transform="matrix(1.25,0,0,-1.25,0,251.25)"><g
       id="g3002"
       inkscape:export-filename="/Users/chakie/Work/nordicid/nur_sample_ios/NURAPI Objective-C Demo/Icons/targets/AlienTechnology/App_store_icon.png"
       inkscape:export-xdpi="400.7"
       inkscape:export-ydpi="400.7"><rect
         transform="scale(1,-1)"
         y="-190.3"
         x="36.35"
         height="184"
         width="184"
         id="rect3000"
         style="fill:#a63946;fill-opacity:1;stroke:none" /><g
         inkscape:export-ydpi="400.7"
         inkscape:export-xdpi="400.7"
         inkscape:export-filename="/Users/chakie/Work/nordicid/nur_sample_ios/NURAPI Objective-C Demo/Icons/targets/AlienTechnology/App_store_icon.png"
         transform="matrix(0.974731,0,0,1.04489,21.9727,-1.53668)"
         id="g3014"><g
           clip-path="url(#clipPath3018)"
           id="g3016"><g
             transform="translate(157.337,7.5)"
             id="g3022"><path
               inkscape:connector-curvature="0"
               id="path3024"
               style="fill:#a63946;fill-opacity:1;fill-rule:nonzero;stroke:none"
               d="M 0,0 L -96.405,0 C -121.805,0 -142.587,20.782 -142.587,46.182 L -142.587,129.913 C -142.587,155.313 -121.805,176.095 -96.405,176.095 L 0,176.095 C 25.4,176.095 46.183,155.313 46.183,129.913 L 46.183,46.182 C 46.183,20.782 25.4,0 0,0" /></g><g
             transform="translate(187.9,61.895)"
             id="g3026"><path
               inkscape:connector-curvature="0"
               id="path3028"
               style="fill:#ffffff;fill-opacity:1;fill-rule:evenodd;stroke:none"
               d="M 0,0 L 0.008,-21.029 L -54.83,67.531 L 0,0 z" /></g><g
             transform="translate(131.372,147.623)"
             id="g3030"><path
               inkscape:connector-curvature="0"
               id="path3032"
               style="fill:#ffffff;fill-opacity:1;fill-rule:evenodd;stroke:none"
               d="M 0,0 L -2.349,20.897 L -46.916,-73.253 L 0,0 z" /></g><g
             transform="translate(58.7651,35.9629)"
             id="g3034"><path
               inkscape:connector-curvature="0"
               id="path3036"
               style="fill:#ffffff;fill-opacity:1;fill-rule:evenodd;stroke:none"
               d="M 0,0 L -17.898,11.046 L 86.268,11.157 L 0,0 z" /></g><g
             transform="translate(49.688,54.6548)"
             id="g3038"><path
               inkscape:connector-curvature="0"
               id="path3040"
               style="fill:#ffffff;fill-opacity:1;fill-rule:evenodd;stroke:none"
               d="M 0,0 L -17.891,11.051 L 84.829,11.029 L 0,0 z" /></g><g
             transform="translate(110.8,148.126)"
             id="g3042"><path
               inkscape:connector-curvature="0"
               id="path3044"
               style="fill:#ffffff;fill-opacity:1;fill-rule:evenodd;stroke:none"
               d="M 0,0 L -2.349,20.898 L -46.913,-73.252 L 0,0 z" /></g><g
             transform="translate(176.768,44.3491)"
             id="g3046"><path
               inkscape:connector-curvature="0"
               id="path3048"
               style="fill:#ffffff;fill-opacity:1;fill-rule:evenodd;stroke:none"
               d="M 0,0 L 0.002,-21.025 L -53.964,66.374 L 0,0 z" /></g></g></g></g></g></svg>